<svg width="16" height="16" viewBox="0 0 16 16" fill="none" xmlns="http://www.w3.org/2000/svg">
<path fill-rule="evenodd" clip-rule="evenodd" d="M1.5846 0.206026L1.67716 0.287755L8 6.61081L14.3228 0.287755C14.7065 -0.0959182 15.3286 -0.0959182 15.7122 0.287755C16.0664 0.641914 16.0936 1.19919 15.794 1.5846L15.7122 1.67716L9.38919 8L15.7122 14.3228C16.0959 14.7065 16.0959 15.3286 15.7122 15.7122C15.3581 16.0664 14.8008 16.0936 14.4154 15.794L14.3228 15.7122L8 9.38919L1.67716 15.7122C1.29348 16.0959 0.671428 16.0959 0.287755 15.7122C-0.0664049 15.3581 -0.0936477 14.8008 0.206026 14.4154L0.287755 14.3228L6.61081 8L0.287755 1.67716C-0.0959182 1.29348 -0.0959182 0.671428 0.287755 0.287755C0.612401 -0.0368916 1.10772 -0.086837 1.48489 0.137918L1.5846 0.206026Z" fill="#333333"/>
</svg>
