<svg width="14" height="14" viewBox="0 0 14 14" fill="none" xmlns="http://www.w3.org/2000/svg">
<path fill-rule="evenodd" clip-rule="evenodd" d="M0.0189735 6.64974C0.0804596 3.04359 3.46243 -0.114438 7.14114 0.00587C8.90382 -0.0744149 10.5608 0.677452 11.9108 1.73354C11.3346 2.37535 10.738 2.99356 10.1005 3.57176C8.47755 2.47231 6.16952 2.15808 4.54658 3.4281C2.22494 5.00212 2.11922 8.71857 4.3524 10.4129C6.5241 12.3447 10.6288 11.3856 11.2289 8.42768C9.86864 8.40767 8.50477 8.42768 7.14455 8.38432C7.14114 7.58886 7.13774 6.7934 7.14114 5.99817C9.41515 5.9915 11.6892 5.98793 13.9666 6.00484C14.1029 7.87641 13.8507 9.86828 12.6778 11.4156C10.9015 13.8654 7.33557 14.5806 4.55338 13.5311C1.76124 12.4884 -0.216277 9.59741 0.0189735 6.64974Z" fill="#FEFEFE"/>
</svg>
