<svg width="18" height="18" viewBox="0 0 18 18" fill="none" xmlns="http://www.w3.org/2000/svg">
<path fill-rule="evenodd" clip-rule="evenodd" d="M13 7.50597C13 10.5483 10.5361 13.0119 7.5 13.0119C4.46393 13.0119 2 10.5483 2 7.50597C2 4.46361 4.46393 2 7.5 2C10.5361 2 13 4.46361 13 7.50597ZM12.0572 13.4678C10.7941 14.4364 9.2142 15.0119 7.5 15.0119C3.35786 15.0119 0 11.6514 0 7.50597C0 3.36054 3.35786 0 7.5 0C11.6421 0 15 3.36054 15 7.50597C15 9.21448 14.4296 10.7897 13.469 12.0512L17.7068 16.2924C18.0972 16.6831 18.0972 17.3165 17.7068 17.7072C17.3165 18.0978 16.6835 18.0978 16.2932 17.7072L12.0572 13.4678Z" fill="#ACABA5"/>
</svg>
