<svg width="20" height="20" viewBox="0 0 20 20" fill="none" xmlns="http://www.w3.org/2000/svg">
<path d="M8 12.0524C8.29225 12.3524 8.64109 12.5908 9.02607 12.7535C9.41105 12.9162 9.82444 13 10.242 13C10.6596 13 11.073 12.9162 11.458 12.7535C11.843 12.5908 12.1918 12.3524 12.4841 12.0524L16.0713 8.44426C16.6659 7.84618 17 7.035 17 6.18918C17 5.34335 16.6659 4.53217 16.0713 3.93409C15.4767 3.336 14.6702 3 13.8293 3C12.9884 3 12.1819 3.336 11.5873 3.93409L11.1388 4.38511" stroke="#DDDDDD" stroke-width="2" stroke-linecap="round" stroke-linejoin="round"/>
<path d="M12 7.9476C11.7077 7.64758 11.3589 7.40924 10.9739 7.24652C10.5889 7.08381 10.1756 7 9.75797 7C9.34038 7 8.92698 7.08381 8.542 7.24652C8.15702 7.40924 7.80819 7.64758 7.51593 7.9476L3.92868 11.5557C3.33406 12.1538 3 12.965 3 13.8108C3 14.6566 3.33406 15.4678 3.92868 16.0659C4.5233 16.664 5.32979 17 6.17071 17C7.01164 17 7.81812 16.664 8.41275 16.0659L8.86115 15.6149" stroke="#DDDDDD" stroke-width="2" stroke-linecap="round" stroke-linejoin="round"/>
</svg>
